<svg version="1.1" xmlns="http://www.w3.org/2000/svg" xmlns:xlink="http://www.w3.org/1999/xlink" width="225" height="225"><style xmlns="http://www.w3.org/1999/xhtml"></style><defs/><g transform="translate(0,0)"><g><rect fill="#FFFFFF" stroke="none" x="0" y="0" width="236" height="300"/></g><g transform="translate(0,0) matrix(1,0,0,1,10,60)"><g><g transform="translate(0,0) scale(1,1)"><g><path fill="#FFFFFF" stroke="none" d="M 100 50 A 50 50 0 1 0 99.99997500000208 50.04999999166668 Z"/><g transform="scale(1,1)"><path fill="none" stroke="#333333" d="M 50 0 M 50 0 C 77.614235 0 100 22.385765000000003 100 50 C 100 77.614235 77.614235 100 50 100 C 22.385765000000003 100 0 77.614235 0 50 C 0 22.385765000000003 22.385765000000003 0 50 0 Z" stroke-miterlimit="10" stroke-width="2"/></g></g></g></g></g><g transform="matrix(1,0,0,1,20,103)"><g><g><rect fill="rgb(0,0,0)" stroke="none" x="0" y="0" width="81" height="14" fill-opacity="0"/></g></g><g><g><rect fill="rgb(0,0,0)" stroke="none" x="0" y="0" width="81" height="14" fill-opacity="0"/></g></g><g><g><rect fill="rgb(0,0,0)" stroke="none" x="20.5" y="0" width="41" height="14" fill-opacity="0"/></g></g><g><g><rect fill="rgb(0,0,0)" stroke="none" x="20.5" y="0" width="41" height="14" fill-opacity="0"/></g><text fill="rgb(0, 0, 0)" stroke="none" font-family="Arial" font-size="12px" font-style="normal" font-weight="normal" text-decoration="" line-height="14px" x="20.5" y="11">Monitor</text></g></g><g transform="translate(0,0) matrix(1,0,0,1,60,110)"><g><g transform="translate(0,0) scale(1,1)"><g><path fill="#FFFFFF" stroke="none" d="M 100 50 A 50 50 0 1 0 99.99997500000208 50.04999999166668 Z"/><g transform="scale(1,1)"><path fill="none" stroke="#333333" d="M 50 0 M 50 0 C 77.614235 0 100 22.385765000000003 100 50 C 100 77.614235 77.614235 100 50 100 C 22.385765000000003 100 0 77.614235 0 50 C 0 22.385765000000003 22.385765000000003 0 50 0 Z" stroke-miterlimit="10" stroke-width="2"/></g></g></g></g></g><g transform="matrix(1,0,0,1,70,153)"><g><g><rect fill="rgb(0,0,0)" stroke="none" x="0" y="0" width="81" height="14" fill-opacity="0"/></g></g><g><g><rect fill="rgb(0,0,0)" stroke="none" x="0" y="0" width="81" height="14" fill-opacity="0"/></g></g><g><g><rect fill="rgb(0,0,0)" stroke="none" x="5.8125" y="0" width="71" height="14" fill-opacity="0"/></g></g><g><g><rect fill="rgb(0,0,0)" stroke="none" x="5.8125" y="0" width="71" height="14" fill-opacity="0"/></g><text fill="rgb(0, 0, 0)" stroke="none" font-family="Arial" font-size="12px" font-style="normal" font-weight="normal" text-decoration="" line-height="14px" x="6" y="11">Deploy</text><text fill="rgb(0, 0, 0)" stroke="none" font-family="Arial" font-size="12px" font-style="normal" font-weight="normal" text-decoration="" line-height="14px" x="43" y="11"> /</text><text fill="rgb(0, 0, 0)" stroke="none" font-family="Arial" font-size="12px" font-style="normal" font-weight="normal" text-decoration="" line-height="14px" x="53" y="11">Run</text></g></g><g transform="translate(0,0) matrix(1,0,0,1,110,60)"><g><g transform="translate(0,0) scale(1,1)"><g><path fill="#FFFFFF" stroke="none" d="M 100 50 A 50 50 0 1 0 99.99997500000208 50.04999999166668 Z"/><g transform="scale(1,1)"><path fill="none" stroke="#333333" d="M 50 0 M 50 0 C 77.614235 0 100 22.385765000000003 100 50 C 100 77.614235 77.614235 100 50 100 C 22.385765000000003 100 0 77.614235 0 50 C 0 22.385765000000003 22.385765000000003 0 50 0 Z" stroke-miterlimit="10" stroke-width="2"/></g></g></g></g></g><g transform="matrix(1,0,0,1,120,103)"><g><g><rect fill="rgb(0,0,0)" stroke="none" x="0" y="0" width="81" height="14" fill-opacity="0"/></g></g><g><g><rect fill="rgb(0,0,0)" stroke="none" x="0" y="0" width="81" height="14" fill-opacity="0"/></g></g><g><g><rect fill="rgb(0,0,0)" stroke="none" x="28.828125" y="0" width="25" height="14" fill-opacity="0"/></g></g><g><g><rect fill="rgb(0,0,0)" stroke="none" x="28.828125" y="0" width="25" height="14" fill-opacity="0"/></g><text fill="rgb(0, 0, 0)" stroke="none" font-family="Arial" font-size="12px" font-style="normal" font-weight="normal" text-decoration="" line-height="14px" x="28.828125" y="11">Test</text></g></g><g transform="translate(0,0) matrix(1,0,0,1,60,10)"><g><g transform="translate(0,0) scale(1,1)"><g><path fill="#FFFFFF" stroke="none" d="M 100 50 A 50 50 0 1 0 99.99997500000208 50.04999999166668 Z"/><g transform="scale(1,1)"><path fill="none" stroke="#333333" d="M 50 0 M 50 0 C 77.614235 0 100 22.385765000000003 100 50 C 100 77.614235 77.614235 100 50 100 C 22.385765000000003 100 0 77.614235 0 50 C 0 22.385765000000003 22.385765000000003 0 50 0 Z" stroke-miterlimit="10" stroke-width="2"/></g></g></g></g></g><g transform="matrix(1,0,0,1,70,53)"><g><g><rect fill="rgb(0,0,0)" stroke="none" x="0" y="0" width="81" height="14" fill-opacity="0"/></g></g><g><g><rect fill="rgb(0,0,0)" stroke="none" x="0" y="0" width="81" height="14" fill-opacity="0"/></g></g><g><g><rect fill="rgb(0,0,0)" stroke="none" x="3.15625" y="0" width="75" height="14" fill-opacity="0"/></g></g><g><g><rect fill="rgb(0,0,0)" stroke="none" x="3.15625" y="0" width="75" height="14" fill-opacity="0"/></g><text fill="rgb(0, 0, 0)" stroke="none" font-family="Arial" font-size="12px" font-style="normal" font-weight="normal" text-decoration="" line-height="14px" x="3" y="11">Dev</text><text fill="rgb(0, 0, 0)" stroke="none" font-family="Arial" font-size="12px" font-style="normal" font-weight="normal" text-decoration="" line-height="14px" x="24" y="11"> /</text><text fill="rgb(0, 0, 0)" stroke="none" font-family="Arial" font-size="12px" font-style="normal" font-weight="normal" text-decoration="" line-height="14px" x="34" y="11">Improve</text></g></g><g transform="translate(0,0) matrix(1,0,0,1,10,60)"><g><g transform="translate(0,0) scale(1,1)"><g><path fill="#6fa8dc" stroke="none" d="M 100 50 A 50 50 0 1 0 99.99997500000208 50.04999999166668 Z" opacity="0.25"/><g transform="scale(1,1)"><path fill="none" stroke="#333333" d="M 50 0 M 50 0 C 77.614235 0 100 22.385765000000003 100 50 C 100 77.614235 77.614235 100 50 100 C 22.385765000000003 100 0 77.614235 0 50 C 0 22.385765000000003 22.385765000000003 0 50 0 Z" stroke-miterlimit="10" stroke-width="2" opacity="0.25"/></g></g></g></g></g></g></svg>